# xmcd
#
# Track frame offsets: 
#        150
#        15507
#        29520
#        45698
#        60307
#        73501
#        89133
#        104430
#        122105
#        137341
#        153320
#        172292
#        189132
#        203331
#        222466
#        238759
#        252717
#        268763
#
# Disc length: 3789 seconds
#
# Revision: 0
# Processed by: cddbd v1.5.2PL0 Copyright (c) Steve Scherf et al.
# Submitted via: ExactAudioCopy v1.1
#
DISCID=060ecb12
DTITLE=Luc Steeno - 30 - CD 1
DYEAR=2019
DGENRE=Chanson
TTITLE0=De Hele Zomer
TTITLE1=Dans, Dans, Dans
TTITLE2=Luc Steeno and Laura Lynn - Bel Me, Schrijf Me
TTITLE3=Elke Dag Een Feestje
TTITLE4=Raar Maar Waar
TTITLE5=Luc Steeno and Frank Van Erum - Laat Ons Klinken
TTITLE6=Ik Mis Je Elke Dag
TTITLE7=Eens Was Ik Je Beste Vriend
TTITLE8=Voor Jou
TTITLE9=Holiday
TTITLE10=Hij Speelde Accordeon
TTITLE11=Ik Geef Je Alles
TTITLE12=Een Vrouw Is
TTITLE13=Ga Dan
TTITLE14=Waarom Voel Ik Nog Steeds
TTITLE15=Wat Blijft Er Over
TTITLE16=Je T'Aime, Mon Amour
TTITLE17=Maria
EXTD=
EXTT0=
EXTT1=
EXTT2=
EXTT3=
EXTT4=
EXTT5=
EXTT6=
EXTT7=
EXTT8=
EXTT9=
EXTT10=
EXTT11=
EXTT12=
EXTT13=
EXTT14=
EXTT15=
EXTT16=
EXTT17=
PLAYORDER=
